<svg width="800" height="800" viewBox="0 0 800 800" fill="none" xmlns="http://www.w3.org/2000/svg">
<rect width="800" height="800" rx="30" fill="#D9D9D9"/>
<rect x="55" y="55" width="690" height="690" rx="25" stroke="#3C3C3C" stroke-opacity="0.42" stroke-width="10"/>
<path d="M184.571 359L228.221 238.4H233.021L189.371 359H184.571ZM163.571 359L207.221 238.4H211.871L168.371 359H163.571ZM174.071 359L217.571 238.4H222.521L178.871 359H174.071ZM272.471 359L233.321 250.85L235.721 244.1L277.271 359H272.471ZM261.971 359L228.221 265.55L230.471 258.65L266.771 359H261.971ZM251.471 359L222.971 280.1L225.371 273.35L256.271 359H251.471ZM209.021 319.1L210.671 314.6H230.471L232.121 319.1H209.021ZM205.421 329.15L207.071 324.65H234.071L235.721 329.15H205.421ZM201.821 339.05L203.471 334.55H237.671L239.321 339.05H201.821ZM307.549 359V238.4H312.049V359H307.549ZM287.749 359V238.4H292.249V359H287.749ZM297.649 359V238.4H302.149V359H297.649ZM317.449 308.6V304.1H352.699C358.399 304.1 363.549 302.85 368.149 300.35C372.849 297.85 376.549 294.3 379.249 289.7C382.049 285.1 383.449 279.7 383.449 273.5C383.449 267.3 382.049 261.9 379.249 257.3C376.549 252.7 372.849 249.15 368.149 246.65C363.549 244.15 358.399 242.9 352.699 242.9H317.449V238.4H352.699C359.199 238.4 365.099 239.9 370.399 242.9C375.799 245.8 380.049 249.9 383.149 255.2C386.349 260.4 387.949 266.5 387.949 273.5C387.949 280.5 386.349 286.65 383.149 291.95C380.049 297.15 375.799 301.25 370.399 304.25C365.099 307.15 359.199 308.6 352.699 308.6H317.449ZM317.449 298.7V294.2H352.699C358.499 294.2 363.399 292.4 367.399 288.8C371.499 285.1 373.549 280 373.549 273.5C373.549 267 371.499 261.95 367.399 258.35C363.399 254.65 358.499 252.8 352.699 252.8H317.449V248.3H352.699C357.399 248.3 361.649 249.35 365.449 251.45C369.249 253.45 372.299 256.35 374.599 260.15C376.899 263.85 378.049 268.3 378.049 273.5C378.049 278.7 376.899 283.2 374.599 287C372.299 290.7 369.249 293.6 365.449 295.7C361.649 297.7 357.399 298.7 352.699 298.7H317.449ZM317.449 288.8V284.3H352.699C355.699 284.3 358.249 283.45 360.349 281.75C362.549 279.95 363.649 277.2 363.649 273.5C363.649 269.7 362.549 266.95 360.349 265.25C358.249 263.55 355.699 262.7 352.699 262.7H317.449V258.2H352.699C356.999 258.2 360.649 259.5 363.649 262.1C366.649 264.7 368.149 268.5 368.149 273.5C368.149 278.5 366.649 282.3 363.649 284.9C360.649 287.5 356.999 288.8 352.699 288.8H317.449ZM316.999 359V354.5H353.449C360.749 354.5 366.999 353.1 372.199 350.3C377.499 347.4 381.549 343.5 384.349 338.6C387.249 333.6 388.699 327.95 388.699 321.65C388.699 317.75 388.199 314.05 387.199 310.55C386.299 306.95 384.849 303.8 382.849 301.1C383.449 300.6 383.999 300.1 384.499 299.6C385.099 299 385.599 298.35 385.999 297.65C390.799 303.95 393.199 311.95 393.199 321.65C393.199 328.75 391.549 335.15 388.249 340.85C385.049 346.45 380.449 350.9 374.449 354.2C368.549 357.4 361.549 359 353.449 359H316.999ZM316.999 349.1V344.6H353.449C361.749 344.6 368.049 342.45 372.349 338.15C376.649 333.85 378.799 328.35 378.799 321.65C378.799 319.05 378.499 316.55 377.899 314.15C377.299 311.65 376.449 309.45 375.349 307.55C376.149 307.15 376.849 306.7 377.449 306.2C378.049 305.7 378.549 305.25 378.949 304.85C380.349 307.05 381.399 309.6 382.099 312.5C382.899 315.4 383.299 318.45 383.299 321.65C383.299 329.55 380.699 336.1 375.499 341.3C370.299 346.5 362.949 349.1 353.449 349.1H316.999ZM316.999 339.2V334.7H353.449C358.949 334.7 362.899 333.5 365.299 331.1C367.699 328.7 368.899 325.55 368.899 321.65C368.899 317.95 367.949 314.75 366.049 312.05C366.749 311.85 367.449 311.6 368.149 311.3C368.849 310.9 369.549 310.5 370.249 310.1C372.349 313.5 373.399 317.35 373.399 321.65C373.399 326.85 371.749 331.1 368.449 334.4C365.249 337.6 360.249 339.2 353.449 339.2H316.999ZM425.176 359V238.4H429.676V359H425.176ZM405.376 359V238.4H409.876V359H405.376ZM415.276 359V238.4H419.776V359H415.276ZM435.076 308.6V304.1H470.326C476.026 304.1 481.176 302.85 485.776 300.35C490.476 297.85 494.176 294.3 496.876 289.7C499.676 285.1 501.076 279.7 501.076 273.5C501.076 267.3 499.676 261.9 496.876 257.3C494.176 252.7 490.476 249.15 485.776 246.65C481.176 244.15 476.026 242.9 470.326 242.9H435.076V238.4H470.326C476.826 238.4 482.726 239.9 488.026 242.9C493.426 245.8 497.676 249.9 500.776 255.2C503.976 260.4 505.576 266.5 505.576 273.5C505.576 280.5 503.976 286.65 500.776 291.95C497.676 297.15 493.426 301.25 488.026 304.25C482.726 307.15 476.826 308.6 470.326 308.6H435.076ZM435.076 298.7V294.2H470.326C476.126 294.2 481.026 292.4 485.026 288.8C489.126 285.1 491.176 280 491.176 273.5C491.176 267 489.126 261.95 485.026 258.35C481.026 254.65 476.126 252.8 470.326 252.8H435.076V248.3H470.326C475.026 248.3 479.276 249.35 483.076 251.45C486.876 253.45 489.926 256.35 492.226 260.15C494.526 263.85 495.676 268.3 495.676 273.5C495.676 278.7 494.526 283.2 492.226 287C489.926 290.7 486.876 293.6 483.076 295.7C479.276 297.7 475.026 298.7 470.326 298.7H435.076ZM435.076 288.8V284.3H470.326C473.326 284.3 475.876 283.45 477.976 281.75C480.176 279.95 481.276 277.2 481.276 273.5C481.276 269.7 480.176 266.95 477.976 265.25C475.876 263.55 473.326 262.7 470.326 262.7H435.076V258.2H470.326C474.626 258.2 478.276 259.5 481.276 262.1C484.276 264.7 485.776 268.5 485.776 273.5C485.776 278.5 484.276 282.3 481.276 284.9C478.276 287.5 474.626 288.8 470.326 288.8H435.076ZM499.426 359L478.276 312.65C478.976 312.55 479.676 312.45 480.376 312.35C481.176 312.15 481.926 311.9 482.626 311.6L504.376 359H499.426ZM488.476 359L467.626 313.7C468.426 313.7 469.226 313.7 470.026 313.7C470.926 313.6 471.776 313.5 472.576 313.4L493.426 359H488.476ZM477.526 359L456.826 313.85H461.776L482.476 359H477.526ZM536.944 359V238.4H541.444V359H536.944ZM517.144 359V238.4H521.644V359H517.144ZM527.044 359V238.4H531.544V359H527.044ZM576.201 359V238.4H580.701V359H576.201ZM556.401 359V238.4H560.901V359H556.401ZM566.301 359V238.4H570.801V359H566.301ZM586.101 339.2V334.7H637.401V339.2H586.101ZM586.101 349.1V344.6H637.401V349.1H586.101ZM586.101 359V354.5H637.401V359H586.101ZM366.835 539L296.935 418.4H302.185L372.085 539H366.835ZM378.235 539L308.485 418.4H313.735L383.485 539H378.235ZM389.785 539L320.035 418.4H325.285L395.035 539H389.785ZM350.335 450.95L347.785 446.75L364.135 418.4H369.385L350.335 450.95ZM356.035 461L353.335 456.5L375.685 418.4H380.935L356.035 461ZM361.735 470.75L359.035 466.55L387.085 418.4H392.335L361.735 470.75ZM294.235 539L327.535 481.85L330.085 486.35L299.485 539H294.235ZM305.635 539L333.235 491.75L335.785 496.25L310.885 539H305.635ZM317.185 539L338.935 501.65L341.485 506.15L322.435 539H317.185ZM459.743 539L419.093 418.4H423.893L464.543 539H459.743ZM438.743 539L398.093 418.4H402.893L443.543 539H438.743ZM449.243 539L408.593 418.4H413.393L454.043 539H449.243ZM462.593 516.35L460.193 509L490.493 418.4H495.293L462.593 516.35ZM457.343 500.6L454.943 493.55L479.993 418.4H484.793L457.343 500.6ZM467.843 531.65L465.443 524.75L500.993 418.4H505.793L467.843 531.65Z" fill="#747474"/>
</svg>
